<svg xmlns="http://www.w3.org/2000/svg" version="1.1" xmlns:xlink="http://www.w3.org/1999/xlink" xmlns:svgjs="http://svgjs.dev/svgjs" viewBox="0 0 2400 800" opacity="1"><defs><linearGradient x1="50%" y1="0%" x2="50%" y2="100%" id="sssurf-grad"><stop stop-color="hsl(208, 77%, 50%)" stop-opacity="1" offset="0%"></stop><stop stop-color="hsl(208, 74%, 93%)" stop-opacity="1" offset="100%"></stop></linearGradient></defs><g fill="url(#sssurf-grad)" transform="matrix(1,0,0,1,10.303955078125,305.0019950866699)"><path d="M-10,10C23.333333333333336,13.333333333333332,85.41666666666667,30.166666666666668,150,26C214.58333333333331,21.833333333333332,237.5,-10.416666666666666,300,-10C362.5,-9.583333333333334,387.5,26.75,450,28C512.5,29.25,537.5,-3.375,600,-4C662.5,-4.625,687.5,24.583333333333332,750,25C812.5,25.416666666666668,837.5,-4.5,900,-2C962.5,0.5,987.5,37,1050,37C1112.5,37,1137.5,-3.25,1200,-2C1262.5,-0.75,1287.5,41.541666666666664,1350,43C1412.5,44.458333333333336,1437.5,7.083333333333334,1500,5C1562.5,2.9166666666666665,1587.5,32.375,1650,33C1712.5,33.625,1737.5,6.75,1800,8C1862.5,9.25,1887.5,37.333333333333336,1950,39C2012.5,40.666666666666664,2037.5,13.5,2100,16C2162.5,18.5,2187.5,51,2250,51C2312.5,51,2316.6666666666665,-56.70833333333333,2400,16C2483.3333333333335,88.70833333333333,3254.1666666666665,215.83333333333331,2650,400C2045.8333333333335,584.1666666666667,156.25,795.8333333333334,-500,900" transform="matrix(1,0,0,1,0,25)" opacity="0.05"></path><path d="M-10,10C23.333333333333336,13.333333333333332,85.41666666666667,30.166666666666668,150,26C214.58333333333331,21.833333333333332,237.5,-10.416666666666666,300,-10C362.5,-9.583333333333334,387.5,26.75,450,28C512.5,29.25,537.5,-3.375,600,-4C662.5,-4.625,687.5,24.583333333333332,750,25C812.5,25.416666666666668,837.5,-4.5,900,-2C962.5,0.5,987.5,37,1050,37C1112.5,37,1137.5,-3.25,1200,-2C1262.5,-0.75,1287.5,41.541666666666664,1350,43C1412.5,44.458333333333336,1437.5,7.083333333333334,1500,5C1562.5,2.9166666666666665,1587.5,32.375,1650,33C1712.5,33.625,1737.5,6.75,1800,8C1862.5,9.25,1887.5,37.333333333333336,1950,39C2012.5,40.666666666666664,2037.5,13.5,2100,16C2162.5,18.5,2187.5,51,2250,51C2312.5,51,2316.6666666666665,-56.70833333333333,2400,16C2483.3333333333335,88.70833333333333,3254.1666666666665,215.83333333333331,2650,400C2045.8333333333335,584.1666666666667,156.25,795.8333333333334,-500,900" transform="matrix(1,0,0,1,0,50)" opacity="0.53"></path><path d="M-10,10C23.333333333333336,13.333333333333332,85.41666666666667,30.166666666666668,150,26C214.58333333333331,21.833333333333332,237.5,-10.416666666666666,300,-10C362.5,-9.583333333333334,387.5,26.75,450,28C512.5,29.25,537.5,-3.375,600,-4C662.5,-4.625,687.5,24.583333333333332,750,25C812.5,25.416666666666668,837.5,-4.5,900,-2C962.5,0.5,987.5,37,1050,37C1112.5,37,1137.5,-3.25,1200,-2C1262.5,-0.75,1287.5,41.541666666666664,1350,43C1412.5,44.458333333333336,1437.5,7.083333333333334,1500,5C1562.5,2.9166666666666665,1587.5,32.375,1650,33C1712.5,33.625,1737.5,6.75,1800,8C1862.5,9.25,1887.5,37.333333333333336,1950,39C2012.5,40.666666666666664,2037.5,13.5,2100,16C2162.5,18.5,2187.5,51,2250,51C2312.5,51,2316.6666666666665,-56.70833333333333,2400,16C2483.3333333333335,88.70833333333333,3254.1666666666665,215.83333333333331,2650,400C2045.8333333333335,584.1666666666667,156.25,795.8333333333334,-500,900" transform="matrix(1,0,0,1,0,75)" opacity="1.00"></path></g></svg>