<svg xmlns="http://www.w3.org/2000/svg" version="1.1" xmlns:xlink="http://www.w3.org/1999/xlink" xmlns:svgjs="http://svgjs.dev/svgjs" viewBox="0 0 2400 800" opacity="1"><defs><linearGradient x1="50%" y1="0%" x2="50%" y2="100%" id="sssurf-grad"><stop stop-color="hsl(208, 77%, 50%)" stop-opacity="1" offset="0%"></stop><stop stop-color="hsl(208, 74%, 93%)" stop-opacity="1" offset="100%"></stop></linearGradient></defs><g fill="url(#sssurf-grad)" transform="matrix(1,0,0,1,0,-6.429290771484375)"><path d="M 0 312.85859846996607 Q 480 450 480 332.2463135484602 Q 960 450 960 330.09403099246015 Q 1440 450 1440 327.9767846507425 Q 1920 450 1920 327.11248876327875 Q 2400 450 2400 324.12055610947885 L 2400 800 L 0 800 L 0 336.46756287078193 Z" transform="matrix(1,0,0,1,0,25)" opacity="0.05"></path><path d="M 0 312.85859846996607 Q 480 450 480 332.2463135484602 Q 960 450 960 330.09403099246015 Q 1440 450 1440 327.9767846507425 Q 1920 450 1920 327.11248876327875 Q 2400 450 2400 324.12055610947885 L 2400 800 L 0 800 L 0 336.46756287078193 Z" transform="matrix(1,0,0,1,0,50)" opacity="0.53"></path><path d="M 0 312.85859846996607 Q 480 450 480 332.2463135484602 Q 960 450 960 330.09403099246015 Q 1440 450 1440 327.9767846507425 Q 1920 450 1920 327.11248876327875 Q 2400 450 2400 324.12055610947885 L 2400 800 L 0 800 L 0 336.46756287078193 Z" transform="matrix(1,0,0,1,0,75)" opacity="1.00"></path></g></svg>