<svg xmlns="http://www.w3.org/2000/svg" version="1.1" xmlns:xlink="http://www.w3.org/1999/xlink" xmlns:svgjs="http://svgjs.dev/svgjs" viewBox="0 0 2400 800" opacity="1"><defs><linearGradient x1="50%" y1="0%" x2="50%" y2="100%" id="sssurf-grad"><stop stop-color="hsl(208, 77%, 50%)" stop-opacity="1" offset="0%"></stop><stop stop-color="hsl(208, 74%, 93%)" stop-opacity="1" offset="100%"></stop></linearGradient></defs><g fill="url(#sssurf-grad)" transform="matrix(1,0,0,1,0,-2.9473876953125)"><path d="M 0 307.2564463262016 Q 360 492.3563717472916 480 321.146039945849 Q 840 487.6288836943892 960 305.8947872175094 Q 1320 632.317022767593 1440 330.0582733217615 Q 1800 534.0097261143852 1920 316.792082051762 Q 2280 506.4381889798454 2400 314.06032895284454 L 2400 800 L 0 800 L 0 310.00483176681433 Z" transform="matrix(1,0,0,1,0,25)" opacity="0.05"></path><path d="M 0 307.2564463262016 Q 360 492.3563717472916 480 321.146039945849 Q 840 487.6288836943892 960 305.8947872175094 Q 1320 632.317022767593 1440 330.0582733217615 Q 1800 534.0097261143852 1920 316.792082051762 Q 2280 506.4381889798454 2400 314.06032895284454 L 2400 800 L 0 800 L 0 310.00483176681433 Z" transform="matrix(1,0,0,1,0,50)" opacity="0.53"></path><path d="M 0 307.2564463262016 Q 360 492.3563717472916 480 321.146039945849 Q 840 487.6288836943892 960 305.8947872175094 Q 1320 632.317022767593 1440 330.0582733217615 Q 1800 534.0097261143852 1920 316.792082051762 Q 2280 506.4381889798454 2400 314.06032895284454 L 2400 800 L 0 800 L 0 310.00483176681433 Z" transform="matrix(1,0,0,1,0,75)" opacity="1.00"></path></g></svg>