<svg xmlns="http://www.w3.org/2000/svg" version="1.1" xmlns:xlink="http://www.w3.org/1999/xlink" xmlns:svgjs="http://svgjs.dev/svgjs" viewBox="0 0 2400 800" opacity="1"><defs><linearGradient x1="50%" y1="0%" x2="50%" y2="100%" id="sssurf-grad"><stop stop-color="hsl(208, 77%, 50%)" stop-opacity="1" offset="0%"></stop><stop stop-color="hsl(208, 74%, 93%)" stop-opacity="1" offset="100%"></stop></linearGradient></defs><g fill="url(#sssurf-grad)" transform="matrix(1,0,0,1,0,-4.953765869140625)"><path d="M 0 334.7728688245533 Q 305.07345516735927 450 480 309.9075248532927 Q 662.6841320775319 450 960 328.3207102130805 Q 1245.0046714494465 450 1440 321.55585840129817 Q 1658.8375258868898 450 1920 334.676226387591 Q 2226.857862725227 450 2400 333.0087515293472 L 2400 800 L 0 800 L 0 311.97814827871844 Z" transform="matrix(1,0,0,1,0,25)" opacity="0.05"></path><path d="M 0 334.7728688245533 Q 305.07345516735927 450 480 309.9075248532927 Q 662.6841320775319 450 960 328.3207102130805 Q 1245.0046714494465 450 1440 321.55585840129817 Q 1658.8375258868898 450 1920 334.676226387591 Q 2226.857862725227 450 2400 333.0087515293472 L 2400 800 L 0 800 L 0 311.97814827871844 Z" transform="matrix(1,0,0,1,0,50)" opacity="0.53"></path><path d="M 0 334.7728688245533 Q 305.07345516735927 450 480 309.9075248532927 Q 662.6841320775319 450 960 328.3207102130805 Q 1245.0046714494465 450 1440 321.55585840129817 Q 1658.8375258868898 450 1920 334.676226387591 Q 2226.857862725227 450 2400 333.0087515293472 L 2400 800 L 0 800 L 0 311.97814827871844 Z" transform="matrix(1,0,0,1,0,75)" opacity="1.00"></path></g></svg>