<?xml version="1.0" encoding="UTF-8"?>
<svg id="Calque_2" data-name="Calque 2" xmlns="http://www.w3.org/2000/svg" xmlns:xlink="http://www.w3.org/1999/xlink" viewBox="0 0 891.33 608.48">
  <defs>
    <style>
      .cls-1 {
        fill: #fff0b6;
      }

      .cls-2 {
        fill: #ffe29d;
      }

      .cls-3 {
        fill: #fff;
      }

      .cls-4 {
        fill: none;
      }

      .cls-5 {
        fill: #60b0f4;
      }

      .cls-5, .cls-6 {
        opacity: .56;
      }

      .cls-7, .cls-8, .cls-9 {
        fill: #a1dbf9;
      }

      .cls-10 {
        fill: #d7f5ff;
      }

      .cls-11 {
        fill: #fcbc90;
      }

      .cls-12 {
        fill: #f5fcff;
      }

      .cls-8 {
        opacity: .22;
      }

      .cls-13 {
        fill: #ed7580;
      }

      .cls-14 {
        fill: #fec08f;
      }

      .cls-15 {
        fill: #ffc78e;
      }

      .cls-16 {
        fill: #ffc68f;
      }

      .cls-6 {
        fill: #337ce3;
      }

      .cls-17 {
        fill: #3e8be9;
      }

      .cls-9 {
        opacity: .16;
      }

      .cls-18 {
        fill: #ffe2a2;
      }

      .cls-19 {
        fill: #ffd291;
      }

      .cls-20 {
        clip-path: url(#clippath);
      }

      .cls-21 {
        fill: #b7eefe;
      }
    </style>
    <clipPath id="clippath">
      <path class="cls-4" d="M220.65,500.29s27.92-9.85,55.07,2.01c21.65,9.46,76.22,2.44,99.45,3.73,25.93,1.43,29.94,9.46,47.05,9.74,20.34.34,30.66-5.13,42.77-13.47,12.11-8.33,28.9-4.49,47.05-4.87,27.53-.57,75.36-8.88,75.36-8.88,0,0,301.31-353.79,302.91-361,1.6-7.22,4.01-90.6-16.04-101.78-20.05-11.18-108.44-31.81-173.31-24.07-64.88,7.74-153.48,10.32-212.24,42.98-58.75,32.67-91.63,30.84-137.34,73.88-45.71,43.04-130.72,381.74-130.72,381.74Z"/>
    </clipPath>
  </defs>
  <g id="Calque_3" data-name="Calque 3">
    <g>
      <path class="cls-21" d="M534.44,573.06h0c13.52-18.18,40.75-29.42,73.32-30.96l142.9-6.79c15.06-.72,28.11-3.51,38.03-8.07,29.13-13.41,76.43-41.58,12.22-62.2-41.9-13.46-77.08-22.56-105.89-28.82-48.75-10.59-71.4-33.92-51.66-48.13,6.35-4.57,10.63-7.95,10.07-8.67-17.34-21.93-64.86-.97-91.7-12.53-37.29-16.06-45.99-3.11-61.02,4.59-22.92,11.73-60.18,16.39-93.3,17.63-39.98,1.49-112.24-8.17-173.55-12.96-35.51-2.78-96.76,7.89-114.54,22.03-8.76,6.96-16.51,12.39,7.83,25.44,21.34,11.44,12.6,32.92-23.92,50.62-21.36,10.35-41.96,20.35-49.32,23.94-19.21,9.38-80.19,42.98-41.08,53.63,34.99,9.52,212.35,24.75,277.24,24.22,16.64-.14,32.58,2.11,46.76,6.67l57.01,18.31c53.18,17.08,117.03,3.77,140.59-27.93Z"/>
      <path class="cls-12" d="M498.59,545.95h0c9.41-12.66,28.37-20.48,51.04-21.55l99.47-4.72c10.48-.5,19.57-2.44,26.47-5.62,20.28-9.33,53.21-28.94,8.51-43.3-29.17-9.37-53.66-15.71-73.71-20.06-33.93-7.37-49.7-23.61-35.96-33.5,4.42-3.18,7.4-5.53,7.01-6.03-12.07-15.26-45.15-.67-63.83-8.72-25.96-11.18-32.01-2.16-42.48,3.19-15.95,8.16-41.89,11.41-64.94,12.27-27.83,1.04-78.13-5.68-120.81-9.02-24.72-1.93-67.35,5.5-79.73,15.33-6.09,4.84-11.5,8.63,5.45,17.71,14.86,7.96,8.77,22.91-16.65,35.23-14.87,7.21-29.21,14.16-34.33,16.66-13.37,6.53-55.82,29.92-28.6,37.33,24.35,6.63,147.81,17.23,192.98,16.86,11.58-.09,22.68,1.47,32.55,4.64l39.69,12.75c37.02,11.89,81.47,2.62,97.87-19.44Z"/>
      <path class="cls-10" d="M479.6,531.59h0c7.23-9.73,21.81-15.74,39.24-16.57l76.47-3.63c8.06-.38,15.04-1.88,20.35-4.32,15.59-7.18,40.9-22.25,6.54-33.29-22.42-7.2-41.25-12.07-56.67-15.42-26.09-5.67-38.21-18.15-27.64-25.76,3.4-2.45,5.69-4.25,5.39-4.64-9.28-11.73-34.71-.52-49.08-6.71-19.96-8.6-24.61-1.66-32.66,2.45-12.27,6.28-32.21,8.77-49.93,9.43-21.39.8-60.07-4.37-92.88-6.94-19-1.49-51.78,4.22-61.3,11.79-4.69,3.72-8.84,6.63,4.19,13.62,11.42,6.12,6.74,17.62-12.8,27.09-11.43,5.54-22.46,10.89-26.39,12.81-10.28,5.02-42.91,23-21.98,28.7,18.72,5.1,113.64,13.24,148.36,12.96,8.9-.07,17.44,1.13,25.02,3.57l30.51,9.8c28.46,9.14,62.63,2.02,75.24-14.94Z"/>
      <path class="cls-12" d="M457.88,515.16h0c4.74-6.38,14.31-10.33,25.74-10.87l50.16-2.38c5.29-.25,9.87-1.23,13.35-2.83,10.22-4.71,26.83-14.59,4.29-21.83-14.71-4.72-27.06-7.92-37.17-10.12-17.11-3.72-25.06-11.91-18.13-16.89,2.23-1.6,3.73-2.79,3.53-3.04-6.09-7.7-22.76-.34-32.19-4.4-13.09-5.64-16.14-1.09-21.42,1.61-8.05,4.12-21.12,5.75-32.75,6.19-14.03.52-39.4-2.87-60.92-4.55-12.46-.98-33.96,2.77-40.2,7.73-3.07,2.44-5.8,4.35,2.75,8.93,7.49,4.02,4.42,11.55-8.4,17.77-7.5,3.63-14.73,7.14-17.31,8.4-6.74,3.29-28.15,15.09-14.42,18.82,12.28,3.34,74.54,8.69,97.31,8.5,5.84-.05,11.44.74,16.41,2.34l20.01,6.43c18.67,6,41.08,1.32,49.35-9.8Z"/>
      <g class="cls-20">
        <g>
          <path class="cls-7" d="M606.01,103.6s-.01-.02-.01-.02h0s25.31-38.82,25.31-38.82l79.11,49.63-23.94,39.67c-48.15-11.68-79.81-49.68-80.46-50.46Z"/>
          <path class="cls-7" d="M686.47,154.06h0c-1.17.21-2.27.57-3.31,1.08-.04.02-.09.05-.13.06-2.4,1.23-4.35,3.29-5.46,5.83l-.65,1.5c-7.56-1.59-14.68-3.9-21.29-6.64-33.51-13.84-54.18-38.8-54.18-38.8l2.15-2.48c2.62-3.03,3.54-7.17,2.42-11.03,0-.01-.01-.02-.01-.02h0s25.31-38.82,25.31-38.82l79.11,49.63-23.94,39.67Z"/>
          <path class="cls-6" d="M335.22,686.95c-39.95-5.41-91.15-42.62-94.42-87.65l2.2-3.51c2.74-3.83,5.53-7.79,8.36-11.86.75,3.29,1.11,7.21,1.01,11.84-.96,43.28,43.44,80.49,82.85,91.17Z"/>
          <path class="cls-17" d="M710.44,114.41s-.06.08-.1.11c-.84.87-4.11.08-9.06-1.97-4.73-1.97-11-5.09-18.1-9.08-4.79-2.68-9.97-5.75-15.31-9.1-21.85-13.71-38.22-26.96-36.56-29.61,1.42-2.27,15.6,3.99,33.37,14.44,2.98,1.76,6.06,3.62,9.2,5.59,21.85,13.71,38.22,26.96,36.56,29.61Z"/>
          <path class="cls-8" d="M401.22,695.06l-20.22,32.23c-4.11,6.55-12.74,8.52-19.29,4.42l-134.51-84.39c-6.55-4.11-8.52-12.74-4.42-19.29l20.22-32.23c2.74-3.83,5.53-7.79,8.36-11.86,56.66-81.49,130.57-209.1,204.68-337.26,2.42-3.99,5.78-7.33,9.76-9.76,5.25-3.2,10.78-5.89,16.51-8.07,5.72-2.18,11.65-3.82,17.7-4.92l16.1-2.91c11.43-2.07,21.09-9.68,25.78-20.32,4.29-9.75,9.28-19.16,14.93-28.16,5.96-9.49,12.64-18.53,20-27.03l24.63-28.41,57.62,34.68,2.74,1.65,5.21,3.14,9.9,5.97-15.51,36.05c-4.45,10.33-9.68,20.27-15.63,29.77-5.65,9-11.94,17.59-18.86,25.69-7.54,8.85-10.19,20.85-7.08,32.05l4.38,15.77c1.65,5.93,2.74,11.98,3.27,18.07.54,6.1.51,12.25-.08,18.37-.45,4.64-2,9.11-4.54,13.03-87.29,128.6-174.14,256.74-221.64,343.72Z"/>
          <path class="cls-7" d="M401.22,695.06l-20.22,32.23c-4.11,6.55-12.74,8.52-19.29,4.42l-134.51-84.39c-6.55-4.11-8.52-12.74-4.42-19.29l20.22-32.23c2.74-3.83,5.53-7.79,8.36-11.86,56.66-81.49,130.57-209.1,204.68-337.26,2.42-3.99,5.78-7.33,9.76-9.76,5.25-3.2,10.78-5.89,16.51-8.07,5.72-2.18,11.65-3.82,17.7-4.92l16.1-2.91c11.43-2.07,21.09-9.68,25.78-20.32,4.29-9.75,9.28-19.16,14.93-28.16,5.96-9.49,12.64-18.53,20-27.03l24.63-28.41,57.62,34.68,2.74,1.65,5.21,3.14,9.9,5.97-15.51,36.05c-4.45,10.33-9.68,20.27-15.63,29.77-5.65,9-11.94,17.59-18.86,25.69-7.54,8.85-10.19,20.85-7.08,32.05l4.38,15.77c1.65,5.93,2.74,11.98,3.27,18.07.54,6.1.51,12.25-.08,18.37-.45,4.64-2,9.11-4.54,13.03-87.29,128.6-174.14,256.74-221.64,343.72Z"/>
          <path class="cls-11" d="M607.14,354.32c-3.25,2.1-9.41,1.97-18.37-.87-6.7-2.13-14.49-5.87-22.49-10.63l9.15-12.36c1.33-1.88-.25-5.88-4.91-11.28-10.33-11.95-28.92-24.88-41.5-28.87-6.35-2.02-10.51-1.9-12.36-.07h-.01c-.41.42-.71.92-.88,1.5-6.09,10.21-42.93,71.16-93.89,139.1,79.99-108.15,88.24-165.17,88.24-165.17,30.72,9.75,61.39,30.43,86.62,59.61,12.83,14.85,16.07,25.35,10.4,29.04Z"/>
          <path class="cls-15" d="M561.72,321.39l-.02.02c-.49.49-1.58.52-3.25,0l-2.64,3.58c-5.62-3.63-11.26-8.29-15.11-12.74-2.87-3.32-3.91-5.81-3.22-7.07l.25-.34c.75-.75,2.45-.81,5.06.03,5.16,1.63,12.76,6.93,17,11.82,2,2.32,2.61,3.99,1.93,4.71Z"/>
          <path class="cls-16" d="M561.7,321.41l-3.66,4.94c-.74-.44-1.49-.89-2.23-1.38l2.64-3.58c1.67.53,2.76.5,3.25,0Z"/>
          <path class="cls-2" d="M343.9,688.41c-38.66,11.38-102.44-30.22-102.21-75.61,63.09-37.92,128.8-113.48,180.16-181.93l.03-.04c50.97-67.94,87.8-128.88,93.89-139.1-1.02,3.25,1.63,9.04,8.16,16.59,1.91,2.22,4.02,4.46,6.26,6.69,10.21,10.18,23.42,20.25,36.1,27.79,8,4.76,15.79,8.5,22.49,10.63,8.95,2.84,15.12,2.97,18.37.87-19.17,17.98-218.01,206.51-263.24,334.1Z"/>
          <path class="cls-19" d="M575.43,330.45l-.03.04c-1.05,1.42-3.79,1.59-8.14.22-2.75-.87-5.94-2.4-9.21-4.36l3.67-4.96c.68-.72.07-2.4-1.93-4.71-4.23-4.9-11.84-10.19-17-11.82-2.61-.84-4.31-.78-5.06-.03-.1.1-.19.21-.25.34l-7.29,9.86c-2.24-2.23-4.35-4.47-6.26-6.69-6.52-7.55-9.17-13.34-8.16-16.59.17-.58.47-1.08.88-1.49h.01c1.85-1.85,6.02-1.96,12.36.05,12.59,3.99,31.17,16.92,41.5,28.87,4.66,5.4,6.23,9.39,4.91,11.28Z"/>
          <path class="cls-18" d="M575.4,330.49l-9.11,12.32c-12.68-7.54-25.88-17.62-36.1-27.79l7.29-9.86c-.68,1.26.35,3.74,3.22,7.07,3.85,4.46,9.49,9.11,15.11,12.74.74.48,1.49.94,2.23,1.38,3.27,1.96,6.47,3.49,9.21,4.36,4.35,1.38,7.09,1.2,8.14-.22Z"/>
          <path class="cls-9" d="M401.22,695.06l-20.22,32.23c-4.11,6.55-12.74,8.52-19.29,4.42l-134.51-84.39c-6.55-4.11-8.52-12.74-4.42-19.29l20.22-32.23c2.74-3.83,5.53-7.79,8.36-11.86,56.66-81.49,130.57-209.1,204.68-337.26,2.42-3.99,5.78-7.33,9.76-9.76,5.25-3.2,10.78-5.89,16.51-8.07,5.72-2.18,11.65-3.82,17.7-4.92l16.1-2.91c11.43-2.07,21.09-9.68,25.78-20.32,4.29-9.75,9.28-19.16,14.93-28.16,5.96-9.49,12.64-18.53,20-27.03l24.63-28.41,57.62,34.68,2.74,1.65,5.21,3.14,9.9,5.97-15.51,36.05c-4.45,10.33-9.68,20.27-15.63,29.77-5.65,9-11.94,17.59-18.86,25.69-7.54,8.85-10.19,20.85-7.08,32.05l4.38,15.77c1.65,5.93,2.74,11.98,3.27,18.07.54,6.1.51,12.25-.08,18.37-.45,4.64-2,9.11-4.54,13.03-87.29,128.6-174.14,256.74-221.64,343.72Z"/>
          <path class="cls-3" d="M254.96,600.07c77.42-112.16,143.5-231.62,212.51-349.01,5.56-9.58,16.37-14.07,26.14-18.17,10.57-4.29,21.96-5.8,33.09-7.83,12.81-1.75,23.14-10.08,27.87-22.08,4.12-8.99,8.88-17.78,14.17-26.13,0,0,1.05.66,1.05.66-5.06,10.13-9.31,20.61-13.18,31.22-4.25,10.24-13.58,18.38-24.24,21.68-5.46,1.58-11.33,2.79-16.87,4.12-11.57,2.5-22.64,7.29-32.52,13.72-2.99,1.92-5.5,4.62-7.14,7.76-.3.54-8.38,15.8-8.92,16.79-45.68,84.22-94.44,168.02-148.91,246.9-16.11,23.13-33.1,46.27-51,68.1-3.63,4.37-7.32,8.69-11.05,12.97,0,0-1-.72-1-.72h0Z"/>
          <path class="cls-5" d="M551.88,428.55c-64.36,86.7-138.26,196.44-161.57,243.67-8.84,17.9-31.03,21.27-55.08,14.73,19.31,2.62,35.99-2.19,43.37-17.13,23.31-47.22,97.22-156.97,161.57-243.67,64.36-86.7,69.05-109.84,50.31-132.95-18.73-23.12,2.18-60.49,20.09-76.6,17.9-16.12,33.34-63.08,33.34-63.08l1.48-2.36c2.6,1.35,5.31,2.64,8.12,3.85,1.19.52,1.8,1.85,1.38,3.08v.03s-14.69,44.75-32.6,60.88c-17.91,16.11-38.82,53.48-20.09,76.6,18.74,23.11,14.04,46.26-50.31,132.95Z"/>
          <path class="cls-3" d="M683.17,103.48c-4.79-2.68-9.97-5.75-15.31-9.1-21.85-13.71-38.22-26.96-36.56-29.61,1.42-2.27,15.6,3.99,33.37,14.44l-10.06,2.72,28.56,21.55Z"/>
          <path class="cls-14" d="M730.25,74.24l-26.11,34.28-.2.27c-2.04,1.31-17.12-6.09-34.46-16.97-3.09-1.94-6.06-3.87-8.83-5.73-.09-.06-.17-.11-.24-.16-.33-.22-.62-.42-.87-.59-.32-.21-.54-.36-.65-.44l-.1-.06c-12.04-8.21-20.15-15.06-19.57-16.76.01-.04.03-.06.05-.09l19.56-38.53,71.41,44.8Z"/>
          <path class="cls-1" d="M730.25,74.24l-.14.19c-1.16,1.27-5.02.68-10.56-1.37-7.41-2.73-17.85-8.06-28.91-15-19.72-12.37-33.95-25.18-31.8-28.62,2.16-3.44,19.89,3.8,39.61,16.17,19.73,12.38,33.96,25.19,31.8,28.63Z"/>
          <path class="cls-3" d="M645.15,76.55l-25.57,40.76c-1.82-1.62-3.46-3.17-4.93-4.6l24.89-39.68,5.61,3.52Z"/>
          <path class="cls-6" d="M401.22,695.06l-20.22,32.23c-4.11,6.55-12.74,8.52-19.29,4.42l-134.51-84.39c-6.55-4.11-8.52-12.74-4.42-19.29l18.02-28.72c3.27,45.03,54.46,82.24,94.42,87.65,24.06,6.53,46.24,3.17,55.08-14.73,23.31-47.22,97.22-156.97,161.57-243.67,64.36-86.7,69.05-109.84,50.31-132.95-18.73-23.12,2.18-60.49,20.09-76.6,17.9-16.12,32.59-60.88,32.59-60.88v-.03c.43-1.23-.17-2.56-1.36-3.08-2.8-1.22-5.51-2.51-8.12-3.85-27.43-14.11-43.94-34.05-43.94-34.05l2.15-2.48c2.62-3.03,3.54-7.17,2.42-11.03.2.24,3.21,3.86,8.64,9.1,1.47,1.43,3.12,2.98,4.93,4.6,9.87,8.85,24.75,20.24,43.38,28.62,7.76,3.49,16.91.74,21.43-6.47l16.88-26.91c4.94,2.05,8.22,2.83,9.06,1.97l-23.86,39.54h0c-.59.1-1.15.25-1.7.43-.29.08-.55.18-.81.3-.2.07-.39.16-.58.26-.08.03-.15.06-.22.1-.04.02-.09.05-.13.06-2.4,1.23-4.35,3.29-5.46,5.83l-.65,1.5-15.51,36.05c-4.45,10.33-9.68,20.27-15.63,29.77-5.65,9-11.94,17.59-18.86,25.69-7.54,8.85-10.19,20.85-7.08,32.05l4.38,15.77c1.65,5.93,2.74,11.98,3.27,18.07.54,6.1.51,12.25-.08,18.37-.45,4.64-2,9.11-4.54,13.03-87.29,128.6-174.14,256.74-221.64,343.72Z"/>
          <path class="cls-13" d="M730.1,74.43l-25.97,34.09-.2.27c-2.04,1.31-17.12-6.09-34.46-16.97-3.09-1.94-6.06-3.87-8.83-5.73-.09-.06-.17-.11-.24-.16-.33-.22-.62-.42-.87-.59-.32-.21-.54-.36-.65-.44l-.1-.06s12.47-2.78,19.09.63c9.86,5.07,10.64,2.05,16.07,2.7,5.38.64,6.34,1.59,11.61-1.41,6.85-3.9,5.48-2.12,8.65-10.02.86-2.15,3.62-3.09,5.33-3.67,5.54,2.05,9.4,2.64,10.56,1.37Z"/>
        </g>
      </g>
    </g>
  </g>
</svg>